<svg width="28" height="31" viewBox="0 0 28 31" fill="none" xmlns="http://www.w3.org/2000/svg">
<path id="Search" fill-rule="evenodd" clip-rule="evenodd" d="M21.0706 12.1461C21.0706 16.9987 17.1367 20.9326 12.2841 20.9326C7.43142 20.9326 3.49756 16.9987 3.49756 12.1461C3.49756 7.29342 7.43142 3.35956 12.2841 3.35956C17.1367 3.35956 21.0706 7.29342 21.0706 12.1461ZM18.1428 22.3757C16.417 23.3662 14.4167 23.9326 12.2841 23.9326C5.77456 23.9326 0.497559 18.6556 0.497559 12.1461C0.497559 5.63656 5.77456 0.359558 12.2841 0.359558C18.7936 0.359558 24.0706 5.63656 24.0706 12.1461C24.0706 15.4416 22.7181 18.4212 20.5378 20.5602L27.5027 28.6884L25.2246 30.6404L18.1428 22.3757Z" fill="black"/>
</svg>
