<svg width="190" height="39" viewBox="0 0 190 39" fill="none" xmlns="http://www.w3.org/2000/svg">
<path d="M32.0654 9.44L27.2014 13.056L32.7054 15.68V16.288C32.5134 16.3947 32.3641 16.5013 32.2574 16.608C32.1508 16.6933 32.0654 16.8213 32.0014 16.992C31.9588 17.1413 31.9268 17.3547 31.9054 17.632C31.9054 17.888 31.9054 18.24 31.9054 18.688V27.36C27.0414 27.9573 22.9241 29.6853 19.5534 32.544C18.7641 32.0533 18.0068 31.6373 17.2814 31.296C16.5774 30.9547 15.9161 30.6773 15.2974 30.464C14.0814 30.0587 12.6841 29.856 11.1054 29.856C9.07877 29.856 7.3721 30.1867 5.98544 30.848C4.57744 31.488 3.87344 32.2667 3.87344 33.184C3.87344 33.4613 3.96944 33.7387 4.16144 34.016L4.51344 34.56C4.64144 34.752 4.70544 35.008 4.70544 35.328C4.70544 36.1387 4.28944 36.544 3.45744 36.544C3.00944 36.544 2.6361 36.352 2.33744 35.968C2.0601 35.584 1.92144 35.104 1.92144 34.528C1.92144 33.7813 2.11344 33.0987 2.49744 32.48C2.68944 32.1813 2.9881 31.8187 3.39344 31.392C3.79877 30.944 4.31077 30.4213 4.92944 29.824C6.91344 27.9467 7.90544 26.4533 7.90544 25.344C7.90544 24.832 7.70277 24.384 7.29744 24C6.8921 23.5947 6.42277 23.392 5.88944 23.392C4.73744 23.392 4.00144 24.0747 3.68144 25.44H2.88144C2.94544 22.4107 4.57744 20.8427 7.77744 20.736V20.544C7.77744 19.2427 7.48944 18.24 6.91344 17.536C6.35877 16.8107 5.55877 16.448 4.51344 16.448C3.19077 16.448 2.27344 17.0773 1.76144 18.336L0.897437 18.112C1.3881 15.0613 2.87077 13.536 5.34544 13.536C5.85744 13.536 6.55077 13.632 7.42544 13.824C7.51077 11.6053 7.93744 9.888 8.70544 8.672C9.47344 7.456 10.9454 6.13333 13.1214 4.704C11.1588 5.216 9.75077 5.472 8.89744 5.472C7.9801 5.472 6.99877 5.312 5.95344 4.992C5.31344 4.77867 4.7481 4.672 4.25744 4.672C2.8921 4.672 2.0601 5.58933 1.76144 7.424H0.705437C0.940103 5.48267 1.53744 3.97867 2.49744 2.912C3.47877 1.824 4.76944 1.28 6.36944 1.28C7.41477 1.28 8.32144 1.38667 9.08944 1.6L11.7134 2.24C12.0761 2.28267 12.4281 2.32533 12.7694 2.368C13.1321 2.38933 13.4948 2.4 13.8574 2.4C15.3081 2.4 16.9081 1.99466 18.6574 1.184L19.3934 2.24C16.4494 3.54133 14.4761 4.864 13.4734 6.208C12.4494 7.552 11.9374 9.52533 11.9374 12.128V20.128C11.9374 22.176 11.7348 23.68 11.3294 24.64C10.9028 25.6427 10.0281 26.7947 8.70544 28.096C10.8814 27.2213 12.3961 26.176 13.2494 24.96C14.1028 23.7227 14.5294 21.9093 14.5294 19.52V12.896C14.5294 10.4 14.7428 8.59733 15.1694 7.488C15.7028 6.208 16.7694 5.10933 18.3694 4.192C19.0521 3.78666 20.0121 3.328 21.2494 2.816C22.5081 2.304 24.0441 1.728 25.8574 1.088L32.0654 9.44ZM23.6174 28.608L24.0974 28.384C24.6948 28.1067 25.2601 27.872 25.7934 27.68C26.3481 27.4667 26.8708 27.296 27.3614 27.168V24.096C26.5294 23.7547 25.6334 23.584 24.6734 23.584C23.6921 23.584 22.7214 23.7547 21.7614 24.096V27.712C22.0601 27.8613 22.3588 28.0107 22.6574 28.16C22.9561 28.288 23.2761 28.4373 23.6174 28.608ZM24.6734 22.592C25.5908 22.592 26.4868 22.72 27.3614 22.976V19.84C26.2308 20.1387 25.2708 20.288 24.4814 20.288C23.6708 20.288 22.7641 20.1387 21.7614 19.84V22.976C22.7854 22.72 23.7561 22.592 24.6734 22.592ZM24.5774 19.296C25.5588 19.296 26.4868 19.0933 27.3614 18.688V17.856L23.3934 15.872L21.7614 17.088V18.784C22.7214 19.1253 23.6601 19.296 24.5774 19.296ZM21.7614 10.464V15.904L28.1614 11.104L22.6254 3.456C21.1748 3.94667 20.2041 4.576 19.7134 5.344C19.2441 6.06933 19.0094 7.31733 19.0094 9.088V17.44C19.0094 18.1227 18.9988 18.6987 18.9774 19.168C18.9561 19.6373 18.9241 20.0107 18.8814 20.288C18.7321 21.248 18.4014 22.144 17.8894 22.976C17.3988 23.808 16.8228 24.48 16.1614 24.992C15.8201 25.248 15.3401 25.568 14.7214 25.952C14.1028 26.3147 13.3348 26.7413 12.4174 27.232C13.1428 27.0613 13.8361 26.9333 14.4974 26.848C15.1588 26.7627 15.7988 26.72 16.4174 26.72C17.7828 26.72 19.2334 26.944 20.7694 27.392V10.464H21.7614ZM42.5829 32.544C41.0469 30.9653 39.2123 29.8987 37.0789 29.344V28.64C37.7616 28.2773 38.1989 27.8293 38.3909 27.296C38.5189 26.9547 38.5829 26.304 38.5829 25.344V7.584C38.5829 5.984 38.4443 4.87466 38.1669 4.256C37.8683 3.57333 37.2709 2.98667 36.3749 2.496L36.5989 1.824C37.2603 2.10133 37.8896 2.42133 38.4869 2.784C39.0843 3.12533 39.6496 3.53067 40.1829 4C41.4203 2.592 43.0949 1.62133 45.2069 1.088L45.4629 1.824C44.4603 2.528 43.8203 3.232 43.5429 3.936C43.2656 4.576 43.1269 5.728 43.1269 7.392V27.52L45.3349 29.056L46.2629 28.352L46.8709 29.056L42.5829 32.544ZM63.1924 29.024C60.3338 30.176 58.1578 31.3493 56.6644 32.544C53.8911 30.496 51.1178 29.3653 48.3444 29.152V28.608C48.9844 28.1173 49.3898 27.36 49.5604 26.336C49.6244 25.9947 49.6564 25.0773 49.6564 23.584V13.28C52.0884 12.4693 54.2218 11.2213 56.0564 9.536C57.1444 10.3253 58.2751 10.9973 59.4484 11.552C60.6431 12.0853 61.8911 12.5227 63.1924 12.864V29.024ZM54.0404 26.912L58.7764 28.928V15.168L54.0404 13.12V26.912ZM72.9564 31.36L68.1564 27.84V12.32C70.7378 12.0427 73.2338 11.1147 75.6444 9.536L81.9484 12.672L85.5004 10.72V15.52C84.9671 15.3707 84.4124 15.2213 83.8364 15.072C83.2604 14.9013 82.6631 14.72 82.0444 14.528V25.024C82.0444 26.0267 82.0978 26.7947 82.2044 27.328C82.3538 27.8187 82.6204 28.352 83.0044 28.928C83.0471 29.0133 83.1111 29.1307 83.1964 29.28C83.3031 29.4293 83.4418 29.6107 83.6124 29.824C83.9324 30.3147 84.1778 30.6987 84.3484 30.976C84.5404 31.2533 84.6578 31.4347 84.7004 31.52C85.1058 32.1813 85.3084 32.8 85.3084 33.376C85.3084 34.144 84.9991 34.784 84.3804 35.296C83.7618 35.808 82.4604 36.5867 80.4764 37.632L79.4524 38.176C77.6604 37.4293 75.9218 37.056 74.2364 37.056C72.2951 37.056 70.2684 37.3653 68.1564 37.984L67.7404 37.472L72.9564 31.36ZM75.4524 33.728C77.5004 33.728 79.6658 34.272 81.9484 35.36L82.7484 34.912C81.3404 33.9307 80.1458 32.736 79.1644 31.328C78.2258 29.8987 77.7031 28.512 77.5964 27.168L71.6444 34.176C72.4124 34.0267 73.1164 33.9093 73.7564 33.824C74.3964 33.76 74.9618 33.728 75.4524 33.728ZM75.3564 28.512L77.5964 25.792V14.528L72.5404 12.64V26.432L75.3564 28.512ZM93.0814 31.36L88.2814 27.84V12.32C90.8628 12.0427 93.3588 11.1147 95.7694 9.536L102.073 12.672L105.625 10.72V15.52C105.092 15.3707 104.537 15.2213 103.961 15.072C103.385 14.9013 102.788 14.72 102.169 14.528V25.024C102.169 26.0267 102.223 26.7947 102.329 27.328C102.479 27.8187 102.745 28.352 103.129 28.928C103.172 29.0133 103.236 29.1307 103.321 29.28C103.428 29.4293 103.567 29.6107 103.737 29.824C104.057 30.3147 104.303 30.6987 104.473 30.976C104.665 31.2533 104.783 31.4347 104.825 31.52C105.231 32.1813 105.433 32.8 105.433 33.376C105.433 34.144 105.124 34.784 104.505 35.296C103.887 35.808 102.585 36.5867 100.601 37.632L99.5774 38.176C97.7854 37.4293 96.0468 37.056 94.3614 37.056C92.4201 37.056 90.3934 37.3653 88.2814 37.984L87.8654 37.472L93.0814 31.36ZM95.5774 33.728C97.6254 33.728 99.7908 34.272 102.073 35.36L102.873 34.912C101.465 33.9307 100.271 32.736 99.2894 31.328C98.3508 29.8987 97.8281 28.512 97.7214 27.168L91.7694 34.176C92.5374 34.0267 93.2414 33.9093 93.8814 33.824C94.5214 33.76 95.0868 33.728 95.5774 33.728ZM95.4814 28.512L97.7214 25.792V14.528L92.6654 12.64V26.432L95.4814 28.512ZM114.742 32.544C112.246 30.9653 109.932 30.0053 107.798 29.664V29.216C108.481 28.832 108.918 28.256 109.11 27.488C109.217 26.9973 109.27 26.2187 109.27 25.152V17.088C109.27 15.936 109.196 15.2213 109.046 14.944C108.897 14.6667 108.534 14.528 107.958 14.528H107.798L107.574 14.048C107.66 14.0053 107.734 13.9733 107.798 13.952C107.884 13.9093 107.98 13.8667 108.086 13.824C109.516 13.2053 110.924 12.544 112.31 11.84C113.697 11.1147 115.073 10.3467 116.438 9.536L121.942 16.672L113.718 23.552V27.712C114.401 28.0107 115.062 28.32 115.702 28.64C116.364 28.96 117.014 29.3013 117.654 29.664L120.918 27.488L121.366 28.128L114.742 32.544ZM118.326 18.176L113.718 12.32V22.016L118.326 18.176ZM124.897 1.664L138.625 11.84C139.158 10.944 139.905 10.336 140.865 10.016L141.089 10.784C140.619 11.2533 140.321 11.872 140.193 12.64C140.107 12.9813 140.065 13.6853 140.065 14.752V28.928C137.398 29.9947 135.19 31.2 133.441 32.544C132.63 31.9893 131.851 31.5093 131.105 31.104C130.379 30.6773 129.707 30.3467 129.089 30.112C128.47 29.8773 127.809 29.6853 127.105 29.536C126.422 29.3653 125.686 29.2587 124.897 29.216V28.736C125.473 28.1813 125.825 27.6267 125.953 27.072C126.102 26.496 126.177 25.1947 126.177 23.168V13.056C128.139 12.5653 129.59 11.9467 130.529 11.2L124.897 6.88V1.664ZM135.649 28.832V14.976L132.001 12.288C131.894 12.3733 131.745 12.48 131.553 12.608C131.382 12.736 131.147 12.9067 130.849 13.12V26.528L135.649 28.832ZM144.612 32.128C145.231 30.1227 146.074 28.7253 147.14 27.936C148.292 27.104 149.978 26.6453 152.196 26.56C152.858 26.5387 153.412 26.464 153.86 26.336C154.33 26.1867 154.692 25.9627 154.948 25.664C155.226 25.344 155.418 24.9387 155.524 24.448C155.652 23.9573 155.716 23.3493 155.716 22.624C155.716 21.6427 155.61 20.7467 155.396 19.936C155.204 19.104 154.927 18.3893 154.564 17.792C154.202 17.1947 153.754 16.736 153.22 16.416C152.708 16.096 152.132 15.936 151.492 15.936C151.151 15.936 150.852 15.9573 150.596 16C150.34 16.0427 150.095 16.1173 149.86 16.224C149.626 16.3093 149.391 16.4373 149.156 16.608C148.922 16.7787 148.666 16.992 148.388 17.248L147.972 16.96C149.295 14.5493 151.002 13.344 153.092 13.344C153.519 13.344 153.946 13.3973 154.372 13.504C154.394 12.3947 154.479 11.3813 154.628 10.464C154.799 9.52533 155.055 8.68267 155.396 7.936C156.058 6.44267 157.199 4.896 158.82 3.296C157.05 4 155.663 4.352 154.66 4.352C154.255 4.352 153.914 4.32 153.636 4.256L151.972 3.968C151.674 3.92533 151.428 3.89333 151.236 3.872C151.044 3.82933 150.895 3.808 150.788 3.808C149.978 3.808 149.338 3.97867 148.868 4.32C148.42 4.66133 148.004 5.25867 147.62 6.112L147.076 6.016C147.162 5.248 147.354 4.55467 147.652 3.936C147.972 3.31733 148.367 2.79467 148.836 2.368C149.327 1.92 149.882 1.57867 150.5 1.344C151.14 1.088 151.834 0.959999 152.58 0.959999C153.327 0.959999 154.223 1.09867 155.268 1.376C156.612 1.71733 157.796 1.888 158.82 1.888C159.887 1.888 160.932 1.64267 161.956 1.152L162.372 1.632C160.9 2.86933 159.866 4.128 159.268 5.408C158.692 6.66667 158.404 8.26667 158.404 10.208C158.404 11.0187 158.436 11.936 158.5 12.96C158.586 13.984 158.703 15.1147 158.852 16.352L159.268 19.744C159.311 20.0427 159.343 20.4053 159.364 20.832C159.386 21.2373 159.396 21.6853 159.396 22.176C159.396 23.9467 158.98 25.216 158.148 25.984C157.338 26.752 155.898 27.232 153.828 27.424C154.554 27.9147 155.386 28.5867 156.324 29.44C156.623 29.7173 156.879 29.952 157.092 30.144C157.327 30.3147 157.53 30.4533 157.7 30.56C158.212 30.7947 158.778 30.912 159.396 30.912C161.679 30.912 162.82 29.4613 162.82 26.56C162.82 25.664 162.756 24.5333 162.628 23.168C162.5 21.7813 162.298 20.1173 162.02 18.176C161.786 16.4267 161.604 14.9867 161.476 13.856C161.348 12.7253 161.284 11.8827 161.284 11.328C161.284 5.26933 163.695 1.92 168.516 1.28L168.964 2.048C168.794 2.112 168.57 2.176 168.292 2.24C167.034 2.624 166.148 3.15733 165.636 3.84C165.124 4.52267 164.868 5.51466 164.868 6.816C164.868 7.37067 164.911 8.14933 164.996 9.152C165.103 10.1547 165.263 11.3707 165.476 12.8L165.54 13.344C165.839 15.4773 166.063 17.312 166.212 18.848C166.383 20.384 166.468 21.632 166.468 22.592C166.468 25.6 165.743 27.9893 164.292 29.76C162.842 31.5307 160.911 32.416 158.5 32.416C157.242 32.416 155.375 31.9573 152.9 31.04C150.852 30.2933 149.412 29.92 148.58 29.92C147.236 29.92 146.106 30.7307 145.188 32.352L144.612 32.128ZM174.908 9.536C175.036 9.64267 175.196 9.77067 175.388 9.92C176.198 10.6027 176.732 11.136 176.988 11.52C177.329 12.0533 177.5 12.7573 177.5 13.632C177.5 13.9093 177.51 14.1013 177.532 14.208L183.132 9.536L186.46 12.832L188.572 10.784L189.244 11.488C188.241 12.4267 187.601 13.2587 187.324 13.984C187.046 14.6667 186.908 15.7973 186.908 17.376V25.088C186.908 25.664 186.908 26.1333 186.908 26.496C186.908 26.8373 186.918 27.0613 186.94 27.168C187.068 28.1493 187.42 28.64 187.996 28.64C188.209 28.64 188.561 28.4693 189.052 28.128C189.094 28.0853 189.137 28.0427 189.18 28C189.244 27.9573 189.318 27.904 189.404 27.84L189.948 28.736L185.18 32.544C185.073 32.4587 184.977 32.3733 184.892 32.288C184.806 32.224 184.742 32.1707 184.7 32.128C183.654 31.2107 183.014 30.4213 182.78 29.76C182.545 29.0987 182.428 27.808 182.428 25.888V14.496L180.668 12.672L177.532 15.264V27.744L179.068 29.408L175.164 32.544L171.292 29.312L173.052 27.648V16.032C173.052 15.4347 173.041 14.944 173.02 14.56C172.998 14.176 172.945 13.888 172.86 13.696C172.796 13.4827 172.7 13.344 172.572 13.28C172.444 13.1947 172.273 13.152 172.06 13.152C171.889 13.152 171.516 13.312 170.94 13.632L170.428 12.928L174.908 9.536Z" fill="black"/>
</svg>
