<svg width="28" height="31" viewBox="0 0 28 31" fill="none" xmlns="http://www.w3.org/2000/svg">
<path fill-rule="evenodd" clip-rule="evenodd" d="M21.0705 12.1461C21.0705 16.9987 17.1366 20.9326 12.284 20.9326C7.43129 20.9326 3.49744 16.9987 3.49744 12.1461C3.49744 7.29342 7.43129 3.35956 12.284 3.35956C17.1366 3.35956 21.0705 7.29342 21.0705 12.1461ZM18.1427 22.3757C16.4169 23.3662 14.4165 23.9326 12.284 23.9326C5.77444 23.9326 0.497437 18.6556 0.497437 12.1461C0.497437 5.63656 5.77444 0.359558 12.284 0.359558C18.7935 0.359558 24.0705 5.63656 24.0705 12.1461C24.0705 15.4416 22.718 18.4212 20.5377 20.5602L27.5026 28.6884L25.2245 30.6404L18.1427 22.3757Z" fill="black"/>
</svg>
